<svg width="41" height="36" viewBox="0 0 41 36" fill="none" xmlns="http://www.w3.org/2000/svg">
<mask id="path-1-inside-1_58_242" fill="white">
<path fill-rule="evenodd" clip-rule="evenodd" d="M23.0822 1.1418C21.5913 -0.118433 19.4086 -0.118435 17.9177 1.1418L2.39371 14.2643C1.67139 14.8749 1.24192 15.6299 1.06411 16.4166C0.480449 17.2347 0.137085 18.236 0.137085 19.3175V31C0.137085 33.7614 2.37566 36 5.13709 36H35.8628C38.6242 36 40.8628 33.7614 40.8628 31V19.3175C40.8628 18.236 40.5195 17.2347 39.9358 16.4167C39.758 15.6299 39.3285 14.8749 38.6062 14.2643L23.0822 1.1418Z"/>
</mask>
<path d="M17.9177 1.1418L15.981 -1.14932V-1.14932L17.9177 1.1418ZM23.0822 1.1418L25.0189 -1.14932L25.0189 -1.14932L23.0822 1.1418ZM2.39371 14.2643L0.457015 11.9732H0.457015L2.39371 14.2643ZM1.06411 16.4166L3.50623 18.1591L3.85712 17.6673L3.99031 17.078L1.06411 16.4166ZM39.9358 16.4167L37.0096 17.078L37.1428 17.6673L37.4937 18.1591L39.9358 16.4167ZM38.6062 14.2643L40.5429 11.9732L40.5429 11.9732L38.6062 14.2643ZM19.8544 3.43292C20.2271 3.11786 20.7728 3.11786 21.1455 3.43292L25.0189 -1.14932C22.4099 -3.35473 18.59 -3.35473 15.981 -1.14932L19.8544 3.43292ZM4.3304 16.5554L19.8544 3.43292L15.981 -1.14932L0.457015 11.9732L4.3304 16.5554ZM3.99031 17.078C4.02572 16.9213 4.11129 16.7406 4.3304 16.5554L0.457015 11.9732C-0.76852 13.0091 -1.54187 14.3384 -1.86209 15.7553L3.99031 17.078ZM3.13708 19.3175C3.13708 18.881 3.27342 18.4854 3.50623 18.1591L-1.37801 14.6742C-2.31252 15.984 -2.86292 17.5909 -2.86292 19.3175H3.13708ZM3.13708 31V19.3175H-2.86292V31H3.13708ZM5.13709 33C4.03252 33 3.13708 32.1046 3.13708 31H-2.86292C-2.86292 35.4183 0.718814 39 5.13709 39V33ZM35.8628 33H5.13709V39H35.8628V33ZM37.8628 31C37.8628 32.1046 36.9674 33 35.8628 33V39C40.2811 39 43.8628 35.4183 43.8628 31H37.8628ZM37.8628 19.3175V31H43.8628V19.3175H37.8628ZM37.4937 18.1591C37.7265 18.4854 37.8628 18.881 37.8628 19.3175H43.8628C43.8628 17.5909 43.3124 15.984 42.3779 14.6742L37.4937 18.1591ZM36.6695 16.5554C36.8886 16.7406 36.9742 16.9213 37.0096 17.078L42.862 15.7553C42.5418 14.3384 41.7684 13.0091 40.5429 11.9732L36.6695 16.5554ZM21.1455 3.43292L36.6695 16.5554L40.5429 11.9732L25.0189 -1.14932L21.1455 3.43292Z" fill="white" mask="url(#path-1-inside-1_58_242)"/>
</svg>
